<mxfile host="app.diagrams.net" modified="2024-07-25T12:46:18.341Z" agent="Mozilla/5.0 (Macintosh; Intel Mac OS X 10_15_7) AppleWebKit/537.36 (KHTML, like Gecko) Chrome/126.0.0.0 Safari/537.36" version="24.7.3" etag="Zg01wHNhtFnQvXZo-HNC" type="github">
  <diagram name="Page-1" id="yZyp2mjz8zKYYsOMbCrs">
    <mxGraphModel>
      <root>
        <mxCell id="0" />
        <mxCell id="1" parent="0" />
      </root>
    </mxGraphModel>
  </diagram>
</mxfile>
